<svg width="27" height="28" viewBox="0 0 27 28" fill="none" xmlns="http://www.w3.org/2000/svg">
<path d="M26.5326 16.9018L23.9841 14.9089C24.0164 14.6016 24.0441 14.2424 24.0441 13.8622C24.0441 13.4821 24.0175 13.1229 23.9841 12.8156L26.5349 10.8216C27.0086 10.4473 27.138 9.78295 26.8365 9.2296L24.1862 4.64423C23.9032 4.12669 23.2828 3.86095 22.6532 4.09316L19.646 5.30042C19.0695 4.88451 18.4653 4.53333 17.8403 4.25259L17.3828 1.06288C17.3077 0.457492 16.7809 0 16.1582 0H10.8439C10.2212 0 9.69558 0.457492 9.62161 1.05362L9.16298 4.25492C8.55759 4.52759 7.96266 4.87417 7.36074 5.30274L4.34545 4.09203C3.78047 3.87368 3.10462 4.11856 2.82389 4.63384L0.170245 9.22494C-0.142818 9.75408 -0.0134447 10.4415 0.470636 10.825L3.01917 12.8179C2.97872 13.2072 2.95911 13.5457 2.95911 13.8634C2.95911 14.1812 2.97877 14.5196 3.01917 14.9101L0.468308 16.9041C-0.00537574 17.2796 -0.133612 17.9439 0.167917 18.4961L2.81815 23.0814C3.10121 23.5978 3.71581 23.8658 4.35119 23.6325L7.35841 22.4252C7.93374 22.84 8.53793 23.1912 9.16298 23.473L9.62047 26.6616C9.69553 27.2693 10.2212 27.7268 10.845 27.7268H16.1593C16.782 27.7268 17.3089 27.2693 17.3828 26.6731L17.8414 23.473C18.4468 23.1992 19.0406 22.8538 19.6436 22.424L22.6589 23.6347C22.8045 23.6913 22.9559 23.7202 23.1118 23.7202C23.56 23.7202 23.9725 23.4753 24.1804 23.0941L26.8422 18.4845C27.138 17.9438 27.0086 17.2796 26.5326 16.9018ZM13.501 18.4845C10.9525 18.4845 8.87992 16.4119 8.87992 13.8634C8.87992 11.3148 10.9525 9.24227 13.501 9.24227C16.0496 9.24227 18.1221 11.3148 18.1221 13.8634C18.1221 16.4119 16.0496 18.4845 13.501 18.4845Z" fill="black"/>
</svg>
