<svg width="14" height="17" viewBox="0 0 14 17" fill="none" xmlns="http://www.w3.org/2000/svg">
<path d="M2.11889 13.5711H13.4535C13.4883 13.5711 13.5219 13.566 13.5542 13.5581C13.5568 13.5581 13.5589 13.5586 13.5615 13.5586C13.8034 13.5586 14 13.358 14 13.1106V0.448021C14 0.200712 13.8034 0 13.5615 0H13.4544H2.82026H2.11951C0.952258 0 0.00280719 0.970212 0.00280719 2.16238C0.00280719 2.17837 0.00588649 2.19354 0.00740805 2.20898C0.00588649 3.31025 -0.00748146 13.4295 0.0058865 14.7598C0.00505327 14.7858 0.00193766 14.8112 0.00193766 14.8375C0.00193766 15.9839 0.880528 16.9223 1.98565 16.9932C2.00782 16.9967 2.02956 17 2.05256 17H13.5614C13.8034 17 14 16.7994 14 16.552V14.8656C14 14.6183 13.8034 14.4175 13.5614 14.4175C13.3195 14.4175 13.1229 14.6184 13.1229 14.8656V16.104H2.11889C1.45249 16.104 0.908495 15.5634 0.88176 14.8894C0.882412 14.8774 0.884549 14.866 0.884332 14.8538C0.883897 14.8341 0.883245 14.8035 0.88281 14.7627C0.921139 14.0994 1.4601 13.5711 2.11889 13.5711ZM2.41792 2.16238C2.41792 1.91507 2.61438 1.71436 2.85645 1.71436C3.09852 1.71436 3.29498 1.91507 3.29498 2.16238V11.2629C3.29498 11.5101 3.09852 11.7109 2.85645 11.7109C2.61438 11.7109 2.41792 11.51 2.41792 11.2629V2.16238Z" fill="black"/>
</svg>
