<svg width="14" height="17" viewBox="0 0 14 17" fill="none" xmlns="http://www.w3.org/2000/svg">
<path d="M12.3938 3.00421L10.2541 0.791508C10.2531 0.790453 10.2521 0.789363 10.251 0.788309C9.75839 0.287332 9.07288 0 8.37035 0H1.58203C0.709699 0 0 0.709699 0 1.58203V15.2578C0 16.1301 0.709699 16.8398 1.58203 16.8398H8.34574C7.73954 15.9851 7.38281 14.9417 7.38281 13.8164C7.38281 10.928 9.73269 8.57812 12.6211 8.57812C12.7991 8.57812 12.9749 8.58705 13.1484 8.60425V4.85086C13.1484 4.15586 12.8804 3.50016 12.3938 3.00421ZM5.58984 11.7773H2.77734C2.48611 11.7773 2.25 11.5412 2.25 11.25C2.25 10.9588 2.48611 10.7227 2.77734 10.7227H5.58984C5.88108 10.7227 6.11719 10.9588 6.11719 11.25C6.11719 11.5412 5.88108 11.7773 5.58984 11.7773ZM5.58984 8.96484H2.77734C2.48611 8.96484 2.25 8.72873 2.25 8.4375C2.25 8.14627 2.48611 7.91016 2.77734 7.91016H5.58984C5.88108 7.91016 6.11719 8.14627 6.11719 8.4375C6.11719 8.72873 5.88108 8.96484 5.58984 8.96484ZM5.58984 6.15234H2.77734C2.48611 6.15234 2.25 5.91623 2.25 5.625C2.25 5.33377 2.48611 5.09766 2.77734 5.09766H5.58984C5.88108 5.09766 6.11719 5.33377 6.11719 5.625C6.11719 5.91623 5.88108 6.15234 5.58984 6.15234ZM8.96484 8.96484H8.40234C8.11111 8.96484 7.875 8.72873 7.875 8.4375C7.875 8.14627 8.11111 7.91016 8.40234 7.91016H8.96484C9.25608 7.91016 9.49219 8.14627 9.49219 8.4375C9.49219 8.72873 9.25608 8.96484 8.96484 8.96484ZM8.96484 6.15234H8.40234C8.11111 6.15234 7.875 5.91623 7.875 5.625C7.875 5.33377 8.11111 5.09766 8.40234 5.09766H8.96484C9.25608 5.09766 9.49219 5.33377 9.49219 5.625C9.49219 5.91623 9.25608 6.15234 8.96484 6.15234Z" fill="black"/>
</svg>
